<svg width="34" height="34" viewBox="0 0 34 34" fill="none" xmlns="http://www.w3.org/2000/svg">
    <path
        d="M25.5 4.91406V4.64844C25.5 3.18146 24.3107 1.99219 22.8438 1.99219H11.1562C9.68927 1.99219 8.5 3.18146 8.5 4.64844V4.91406H25.5Z"
        fill="#FDF088" />
    <path
        d="M30.6797 32.0078H3.32031C1.85333 32.0078 0.664062 30.8185 0.664062 29.3516V11.2891C0.664062 9.82208 1.85333 8.63281 3.32031 8.63281H30.6797C32.1467 8.63281 33.3359 9.82208 33.3359 11.2891V29.3516C33.3359 30.8185 32.1467 32.0078 30.6797 32.0078Z"
        fill="#79D5AE" />
    <path
        d="M33.3359 29.3515V16.9451L17 21.8919L0.664195 16.9451H0.664062V29.3515C0.664062 30.8185 1.85333 32.0077 3.32031 32.0077H30.6797C32.1467 32.0077 33.3359 30.8185 33.3359 29.3515Z"
        fill="#79D5AE" />
    <path d="M13.8125 13.2812H20.1875V16.4688H13.8125V13.2812Z" fill="#D9EBE9" />
    <path
        d="M34 11.2891C34 9.45824 32.5105 7.96875 30.6797 7.96875H26.1641V4.64844C26.1641 2.81762 24.6746 1.32812 22.8438 1.32812H11.1562C9.32543 1.32812 7.83594 2.81762 7.83594 4.64844V7.96875H3.32031C1.48949 7.96875 0 9.45824 0 11.2891V29.3516C0 31.1824 1.48949 32.6719 3.32031 32.6719H30.6797C32.5105 32.6719 34 31.1824 34 29.3516V11.2891ZM11.1562 2.65625H22.8438C23.8058 2.65625 24.6108 3.34176 24.7958 4.25H9.20417C9.38925 3.34176 10.1942 2.65625 11.1562 2.65625ZM3.32031 9.29688H14.0202C14.3868 9.29688 14.6842 8.99957 14.6842 8.63281C14.6842 8.26605 14.3868 7.96875 14.0202 7.96875H9.16406V5.57812H24.8359V7.96875H19.9967C19.63 7.96875 19.3327 8.26605 19.3327 8.63281C19.3327 8.99957 19.63 9.29688 19.9967 9.29688H30.6797C31.7782 9.29688 32.6719 10.1906 32.6719 11.2891V16.4523L17 21.1981L1.32812 16.4523V11.2891C1.32812 10.1906 2.22182 9.29688 3.32031 9.29688ZM30.6797 31.3438H3.32031C2.22182 31.3438 1.32812 30.4501 1.32812 29.3516V17.84L16.8076 22.5275C16.8703 22.5464 16.9352 22.5559 17 22.5559C17.0648 22.5559 17.1297 22.5464 17.1924 22.5275L32.6719 17.8401V29.3516C32.6719 30.4501 31.7782 31.3438 30.6797 31.3438Z"
        fill="black" />
    <path
        d="M13.8125 17.1328H20.1875C20.5542 17.1328 20.8516 16.8355 20.8516 16.4688V13.2812C20.8516 12.9145 20.5542 12.6172 20.1875 12.6172H13.8125C13.4457 12.6172 13.1484 12.9145 13.1484 13.2812V16.4688C13.1484 16.8355 13.4457 17.1328 13.8125 17.1328ZM14.4766 13.9453H19.5234V15.8047H14.4766V13.9453Z"
        fill="black" />
    <path
        d="M17.0088 9.29688C17.1834 9.29688 17.3548 9.22582 17.4783 9.10231C17.6017 8.97879 17.6729 8.80746 17.6729 8.63281C17.6729 8.45816 17.6018 8.28684 17.4783 8.16332C17.3548 8.0398 17.1834 7.96875 17.0088 7.96875C16.8341 7.96875 16.6628 8.0398 16.5386 8.16332C16.4151 8.28684 16.3447 8.45816 16.3447 8.63281C16.3447 8.80746 16.4151 8.97879 16.5386 9.10231C16.6628 9.22582 16.8341 9.29688 17.0088 9.29688Z"
        fill="black" />
</svg>