<svg width="60" height="60" viewBox="0 0 60 60" fill="none" xmlns="http://www.w3.org/2000/svg">
    <g clip-path="url(#clip0_222_12)">
        <path
            d="M30 13.3594C20.8243 13.3594 13.3594 20.8243 13.3594 30C13.3594 39.1757 20.8243 46.6406 30 46.6406C39.1757 46.6406 46.6406 39.1757 46.6406 30C46.6406 20.8243 39.1757 13.3594 30 13.3594ZM30 44.2969C22.1167 44.2969 15.7031 37.8833 15.7031 30C15.7031 22.1167 22.1167 15.7031 30 15.7031C37.8833 15.7031 44.2969 22.1167 44.2969 30C44.2969 37.8833 37.8833 44.2969 30 44.2969Z"
            fill="#79D5AE" />
        <path
            d="M59.3779 0.136875C58.995 -0.066328 58.5312 -0.0418358 58.172 0.200742C52.419 4.08797 48.9844 10.5539 48.9844 17.4971V32.7025C48.9844 34.3334 49.6195 35.8666 50.7727 37.0199L52.9688 39.216V56.4844C52.9688 58.4229 54.5459 60 56.4844 60C58.4229 60 60 58.4229 60 56.4844V1.17188C60 0.738399 59.7607 0.340313 59.3779 0.136875ZM57.6562 56.4844C57.6562 57.1305 57.1305 57.6562 56.4844 57.6562C55.8382 57.6562 55.3125 57.1305 55.3125 56.4844V38.7305C55.3125 38.4197 55.189 38.1217 54.9693 37.9018L52.4299 35.3625C51.7194 34.652 51.3281 33.7073 51.3281 32.7025V17.4971C51.3281 12.1089 53.6579 7.04473 57.6562 3.55043V56.4844Z"
            fill="#79D5AE" />
        <path
            d="M27.3115 20.7062C27.0574 20.111 26.3686 19.8345 25.7735 20.0885C21.797 21.786 19.2275 25.6766 19.2275 29.9999C19.2275 30.6471 19.7522 31.1718 20.3994 31.1718C21.0466 31.1718 21.5713 30.6471 21.5713 29.9999C21.5713 26.6169 23.582 23.5724 26.6938 22.2441C27.289 21.9901 27.5655 21.3015 27.3115 20.7062Z"
            fill="#79D5AE" />
        <path
            d="M29.9996 19.2275L29.9404 19.2277C29.2932 19.232 28.7721 19.7602 28.7764 20.4074C28.7807 21.0519 29.3046 21.5714 29.9482 21.5714C29.9507 21.5714 29.9535 21.5714 29.9561 21.5714L29.9996 21.5713C30.6468 21.5713 31.1715 21.0466 31.1715 20.3994C31.1715 19.7522 30.6468 19.2275 29.9996 19.2275Z"
            fill="#79D5AE" />
        <path
            d="M46.2444 14.5873C44.1739 12.4058 41.7334 10.6892 38.9906 9.48545C36.1505 8.23905 33.1254 7.60706 29.9995 7.60706C26.4277 7.60706 23.0133 8.42338 19.8513 10.0335C19.2747 10.3272 19.0451 11.0328 19.3388 11.6096C19.6325 12.1862 20.3381 12.4156 20.9149 12.1221C23.7443 10.6814 26.8008 9.95081 29.9995 9.95081C35.5538 9.95081 40.7193 12.1703 44.5444 16.2008C44.7748 16.4436 45.0844 16.5659 45.3946 16.5659C45.6843 16.5659 45.9744 16.4592 46.2011 16.244C46.6705 15.7985 46.6898 15.0568 46.2444 14.5873Z"
            fill="#79D5AE" />
        <path
            d="M47.3828 42.2319C46.875 41.8307 46.1381 41.9168 45.7368 42.4245C41.9055 47.2702 36.1698 50.0491 30.0002 50.0491C26.1389 50.0491 22.3904 48.9495 19.16 46.8689C18.616 46.5184 17.8907 46.6756 17.5403 47.2195C17.1899 47.7638 17.3469 48.4889 17.891 48.8393C21.5006 51.1641 25.688 52.3928 30.0002 52.3928C36.8909 52.3928 43.2967 49.2893 47.5752 43.8779C47.9766 43.3704 47.8905 42.6334 47.3828 42.2319Z"
            fill="#79D5AE" />
        <path
            d="M15.9326 44.288L15.9154 44.2682C15.9091 44.2606 15.9029 44.2528 15.8965 44.2453C15.4796 43.7501 14.7404 43.6868 14.2453 44.1035C13.7502 44.5205 13.6867 45.2596 14.1036 45.7548L14.115 45.7683L14.1156 45.7678C14.128 45.7835 14.1409 45.7992 14.1543 45.8147C14.3861 46.0847 14.7139 46.2232 15.0439 46.2232C15.3142 46.2232 15.5857 46.1303 15.8067 45.9406C16.2977 45.5189 16.3541 44.7791 15.9326 44.288Z"
            fill="#79D5AE" />
        <path
            d="M14.5312 0C13.884 0 13.3594 0.524648 13.3594 1.17188V13.8281H11.2491C11.2492 13.8216 11.25 13.8152 11.25 13.8086V1.17188C11.25 0.524648 10.7254 0 10.0781 0C9.4309 0 8.90625 0.524648 8.90625 1.17188V13.8086C8.90625 13.8151 8.90719 13.8216 8.90719 13.8281H6.79594C6.79605 13.8216 6.79688 13.8152 6.79688 13.8086V1.17188C6.79688 0.524648 6.27223 0 5.625 0C4.97777 0 4.45312 0.524648 4.45312 1.17188V13.8086C4.45312 13.8151 4.45406 13.8216 4.45406 13.8281H2.34375V1.17188C2.34375 0.524648 1.8191 0 1.17188 0C0.524648 0 0 0.524648 0 1.17188V15.4688C0 18.3434 1.74422 20.9378 4.33594 22.0593V56.4844C4.33594 58.4229 5.91305 60 7.85156 60C9.79008 60 11.3672 58.4229 11.3672 56.4844V22.0593C13.9589 20.9378 15.7031 18.3434 15.7031 15.4688V1.17188C15.7031 0.524648 15.1785 0 14.5312 0ZM9.87 20.1117C9.36867 20.2566 9.02344 20.7156 9.02344 21.2375V56.4844C9.02344 57.1305 8.49773 57.6562 7.85156 57.6562C7.20539 57.6562 6.67969 57.1305 6.67969 56.4844V21.2375C6.67969 20.7156 6.33457 20.2566 5.83313 20.1117C4.00699 19.584 2.67129 18.0165 2.39672 16.1719H13.3063C13.0318 18.0165 11.6961 19.584 9.87 20.1117Z"
            fill="#79D5AE" />
    </g>
    <defs>
        <clipPath id="clip0_222_12">
            <rect width="60" height="60" fill="white" />
        </clipPath>
    </defs>
</svg>