<svg width="40" height="40" viewBox="0 0 40 40" fill="none" xmlns="http://www.w3.org/2000/svg">
    <path
        d="M19.042 9.96094V39.4141C27.1753 39.4141 33.7686 32.8208 33.7686 24.6875C33.7686 16.5542 27.1752 9.96094 19.042 9.96094Z"
        fill="#79D5AE" />
    <path
        d="M31.4248 24.6875C31.4248 16.5542 25.8808 9.96094 19.042 9.96094C10.9087 9.96094 4.31543 16.5542 4.31543 24.6875C4.31543 32.8208 10.9087 39.4141 19.042 39.4141C25.8808 39.4141 31.4248 32.8208 31.4248 24.6875Z"
        fill="#79D5AE" />
    <path
        d="M8.06738 9.375V22.3438L11.9296 16.718C12.4497 15.963 12.7549 15.0486 12.7549 14.0625C12.7549 11.4737 10.6562 9.375 8.06738 9.375Z"
        fill="#FDF088" />
    <path
        d="M10.4111 14.0625C10.4111 11.4737 9.36184 9.375 8.06738 9.375C5.47855 9.375 3.37988 11.4737 3.37988 14.0625C3.37988 15.0486 3.68504 15.963 4.20512 16.718L8.06738 22.3438L9.99848 16.718C10.2585 15.9631 10.4111 15.0486 10.4111 14.0625Z"
        fill="#FDF088" />
    <path
        d="M8.06738 11.7188L6.89551 14.0625L8.06738 16.4062C9.36184 16.4062 10.4111 15.3569 10.4111 14.0625C10.4111 12.7681 9.36176 11.7188 8.06738 11.7188Z"
        fill="#D9EBE9" />
    <path
        d="M5.72363 14.0625C5.72363 15.3569 6.77293 16.4062 8.06738 16.4062V11.7188C6.77293 11.7188 5.72363 12.7681 5.72363 14.0625Z"
        fill="#D9EBE9" />
    <path
        d="M14.3545 21.8906V34.8594L18.2168 29.2337C18.7368 28.4787 19.042 27.5642 19.042 26.5781C19.042 23.9892 16.9433 21.8906 14.3545 21.8906Z"
        fill="#FDF088" />
    <path
        d="M16.6982 26.5781C16.6982 23.9893 15.6489 21.8906 14.3545 21.8906C11.7657 21.8906 9.66699 23.9893 9.66699 26.5781C9.66699 27.5642 9.97215 28.4787 10.4922 29.2337L14.3545 34.8594L16.2856 29.2337C16.5457 28.4787 16.6982 27.5642 16.6982 26.5781Z"
        fill="#FDF088" />
    <path
        d="M14.3545 24.2344L13.1826 26.5781L14.3545 28.9219C15.6489 28.9219 16.6982 27.8725 16.6982 26.5781C16.6982 25.2837 15.6489 24.2344 14.3545 24.2344Z"
        fill="#D9EBE9" />
    <path
        d="M12.0107 26.5781C12.0107 27.8725 13.06 28.9219 14.3545 28.9219V24.2344C13.06 24.2344 12.0107 25.2837 12.0107 26.5781Z"
        fill="#D9EBE9" />
    <path
        d="M23.7295 0.585938V13.5547L27.5918 7.92898C28.1118 7.17398 28.417 6.25953 28.417 5.27344C28.417 2.68461 26.3183 0.585938 23.7295 0.585938Z"
        fill="#FDF088" />
    <path
        d="M26.0732 5.27344C26.0732 2.68461 25.0239 0.585938 23.7295 0.585938C21.1407 0.585938 19.042 2.68461 19.042 5.27344C19.042 6.25953 19.3471 7.17398 19.8672 7.92898L23.7295 13.5547L25.6606 7.92898C25.9207 7.17406 26.0732 6.25953 26.0732 5.27344Z"
        fill="#FDF088" />
    <path
        d="M23.7295 2.92969L22.5576 5.27344L23.7295 7.61719C25.0239 7.61719 26.0732 6.56781 26.0732 5.27344C26.0732 3.97906 25.0239 2.92969 23.7295 2.92969Z"
        fill="#D9EBE9" />
    <path
        d="M21.3857 5.27344C21.3857 6.56781 22.435 7.61719 23.7295 7.61719V2.92969C22.435 2.92969 21.3857 3.97906 21.3857 5.27344Z"
        fill="#D9EBE9" />
    <path
        d="M27.6304 12.0085C27.3628 11.827 26.9983 11.8966 26.8165 12.1643C26.6348 12.4321 26.7046 12.7965 26.9723 12.9782C30.861 15.6172 33.1825 19.9945 33.1825 24.6875C33.1825 32.4847 26.8391 38.8281 19.0419 38.8281C11.2447 38.8281 4.90129 32.4847 4.90129 24.6875C4.90129 23.0542 5.17449 21.4657 5.71379 19.9512L7.58402 22.6754C7.69332 22.8345 7.87402 22.9297 8.06715 22.9297C8.26027 22.9297 8.4409 22.8345 8.55027 22.6754L12.4119 17.0505C13.0195 16.1686 13.3407 15.1353 13.3407 14.0625C13.3407 13.3114 13.1818 12.597 12.8975 11.9498C14.8013 11.0313 16.913 10.5469 19.0419 10.5469C19.7145 10.5469 20.3891 10.5948 21.0511 10.6887L23.2463 13.8863C23.3556 14.0455 23.5363 14.1406 23.7294 14.1406C23.9225 14.1406 24.1032 14.0455 24.2125 13.8863L28.0743 8.26141C28.6818 7.37953 29.0029 6.34625 29.0029 5.27344C29.0029 2.36562 26.6373 0 23.7295 0C20.8217 0 18.4561 2.36562 18.4561 5.27344C18.4561 6.34617 18.7771 7.37945 19.3842 8.26062L20.1783 9.41734C19.8004 9.38961 19.4209 9.375 19.0421 9.375C16.7075 9.375 14.3912 9.91266 12.3083 10.9326C11.3469 9.63336 9.8041 8.78906 8.06738 8.78906C5.15957 8.78906 2.79395 11.1547 2.79395 14.0625C2.79395 15.1353 3.11504 16.1686 3.72207 17.0497L4.91105 18.7816C4.12723 20.6527 3.72941 22.6378 3.72941 24.6875C3.72941 33.1309 10.5986 40 19.0419 40C27.4853 40 34.3544 33.1309 34.3544 24.6875C34.3544 19.6057 31.8407 14.8659 27.6304 12.0085ZM23.7294 1.17188C25.991 1.17188 27.831 3.01187 27.831 5.27344C27.831 6.10781 27.5814 6.91117 27.1087 7.59734L23.7294 12.5195L21.8746 9.81773C21.8705 9.81164 21.8665 9.80555 21.8622 9.79961L20.3498 7.59656C19.8775 6.91109 19.6279 6.10766 19.6279 5.27344C19.6279 3.01187 21.4679 1.17188 23.7294 1.17188ZM3.96566 14.0625C3.96566 11.8009 5.80566 9.96094 8.06723 9.96094C10.3288 9.96094 12.1688 11.8009 12.1688 14.0625C12.1688 14.8969 11.9192 15.7002 11.4464 16.3864L8.06723 21.3085L4.68746 16.3856C4.21527 15.7002 3.96566 14.8969 3.96566 14.0625Z"
        fill="black" />
    <path
        d="M10.9971 14.0625C10.9971 12.447 9.68285 11.1328 8.06738 11.1328C6.45191 11.1328 5.1377 12.447 5.1377 14.0625C5.1377 15.678 6.45191 16.9922 8.06738 16.9922C9.68285 16.9922 10.9971 15.678 10.9971 14.0625ZM6.30957 14.0625C6.30957 13.0933 7.09816 12.3047 8.06738 12.3047C9.0366 12.3047 9.8252 13.0933 9.8252 14.0625C9.8252 15.0317 9.0366 15.8203 8.06738 15.8203C7.09816 15.8203 6.30957 15.0317 6.30957 14.0625Z"
        fill="black" />
    <path
        d="M14.3545 23.6482C12.739 23.6482 11.4248 24.9624 11.4248 26.5779C11.4248 28.1933 12.739 29.5076 14.3545 29.5076C15.97 29.5076 17.2842 28.1933 17.2842 26.5779C17.2842 24.9624 15.97 23.6482 14.3545 23.6482ZM14.3545 28.3357C13.3853 28.3357 12.5967 27.5471 12.5967 26.5779C12.5967 25.6087 13.3853 24.8201 14.3545 24.8201C15.3237 24.8201 16.1123 25.6087 16.1123 26.5779C16.1123 27.5471 15.3238 28.3357 14.3545 28.3357Z"
        fill="black" />
    <path
        d="M14.3545 21.3044C11.4467 21.3044 9.08105 23.6701 9.08105 26.5779C9.08105 27.6507 9.40215 28.684 10.0092 29.5651L13.8714 35.1908C13.9807 35.3499 14.1614 35.4451 14.3546 35.4451C14.5477 35.4451 14.7283 35.3499 14.8376 35.1908L18.6994 29.5658C19.3069 28.6841 19.6281 27.6508 19.6281 26.5779C19.6279 23.6701 17.2623 21.3044 14.3545 21.3044ZM17.7338 28.9018L14.3545 33.8239L10.9747 28.901C10.5025 28.2155 10.2529 27.4122 10.2529 26.5779C10.2529 24.3163 12.0929 22.4763 14.3545 22.4763C16.6161 22.4763 18.4561 24.3163 18.4561 26.5779C18.4561 27.4123 18.2065 28.2156 17.7338 28.9018Z"
        fill="black" />
    <path
        d="M23.7295 8.20312C25.345 8.20312 26.6592 6.88891 26.6592 5.27344C26.6592 3.65797 25.345 2.34375 23.7295 2.34375C22.114 2.34375 20.7998 3.65797 20.7998 5.27344C20.7998 6.88891 22.1141 8.20312 23.7295 8.20312ZM23.7295 3.51562C24.6987 3.51562 25.4873 4.30422 25.4873 5.27344C25.4873 6.24266 24.6988 7.03125 23.7295 7.03125C22.7602 7.03125 21.9717 6.24266 21.9717 5.27344C21.9717 4.30422 22.7603 3.51562 23.7295 3.51562Z"
        fill="black" />
    <path
        d="M27.8311 25.406C27.8311 25.0823 27.5688 24.8201 27.2451 24.8201H21.3857C21.0621 24.8201 20.7998 25.0823 20.7998 25.406C20.7998 25.7297 21.0621 25.9919 21.3857 25.9919H27.2451C27.5688 25.9919 27.8311 25.7297 27.8311 25.406Z"
        fill="black" />
    <path
        d="M21.2881 27.1638C20.9644 27.1638 20.7021 27.4261 20.7021 27.7498C20.7021 28.0734 20.9644 28.3357 21.2881 28.3357H23.6318C23.9555 28.3357 24.2178 28.0734 24.2178 27.7498C24.2178 27.4261 23.9555 27.1638 23.6318 27.1638H21.2881Z"
        fill="black" />
</svg>