<svg width="38" height="38" viewBox="0 0 38 38" fill="none" xmlns="http://www.w3.org/2000/svg">
    <g clip-path="url(#clip0_197_152)">
        <path d="M10.5599 24.3965L5.78906 32.8047L11.501 31.6186L13.5017 37.2578L19.0742 27.4609L10.5599 24.3965Z"
            fill="#FDF088" />
        <path d="M27.5885 24.3965L19.0742 27.4609L24.6464 37.2578L26.6474 31.6186L32.3594 32.8047L27.5885 24.3965Z"
            fill="#FDF088" />
        <path
            d="M19.0742 0.742188C11.6961 0.742188 5.71484 6.72347 5.71484 14.1016C5.71484 21.4794 11.6958 27.461 19.0742 27.461C26.4509 27.461 32.4336 21.4811 32.4336 14.1016C32.4336 6.72347 26.4521 0.742188 19.0742 0.742188Z"
            fill="#79D5AE" />
        <path
            d="M25.4264 12.2498L22.275 15.3542L23.0001 19.7184L19.0741 17.6797L15.1477 19.7184L15.8731 15.3542L12.7217 12.2498L17.0954 11.5914L19.0741 7.63403L21.0527 11.5914L25.4264 12.2498Z"
            fill="#D9EBE9" />
        <path
            d="M7.94141 14.1016C7.94141 20.2403 12.9355 25.2344 19.0742 25.2344C25.2129 25.2344 30.2071 20.2403 30.2071 14.1016C30.2071 7.96287 25.2129 2.96875 19.0742 2.96875C12.9355 2.96875 7.94141 7.96287 7.94141 14.1016ZM19.0742 4.45313C24.3945 4.45313 28.7227 8.7813 28.7227 14.1016C28.7227 19.4219 24.3945 23.75 19.0742 23.75C13.754 23.75 9.42578 19.4219 9.42578 14.1016C9.42578 8.7813 13.754 4.45313 19.0742 4.45313Z"
            fill="#020202" />
        <path
            d="M12.2008 12.7783L15.0777 15.6129L14.4158 19.5966C14.3697 19.8741 14.4842 20.1535 14.7118 20.3188C14.9391 20.484 15.2403 20.5064 15.4899 20.3771L19.0742 18.5158L22.6581 20.3771C22.9057 20.5055 23.207 20.4855 23.4363 20.3188C23.6639 20.1535 23.7784 19.8741 23.7323 19.5966L23.0704 15.6129L25.9473 12.7783C26.1476 12.5812 26.2192 12.2878 26.1322 12.0202C26.0453 11.7529 25.8148 11.5578 25.5367 11.5157L21.5443 10.9147L19.7378 7.30208C19.6123 7.05072 19.3551 6.89185 19.0742 6.89185C18.793 6.89185 18.5361 7.05072 18.4103 7.30208L16.6038 10.9147L12.6113 11.5157C12.3333 11.5575 12.1028 11.7529 12.0159 12.0202C11.9289 12.2878 12.0008 12.5812 12.2008 12.7783ZM17.206 12.3252C17.4449 12.2892 17.6513 12.1394 17.7594 11.9234L19.0742 9.29352L20.389 11.9234C20.4971 12.1394 20.7035 12.2892 20.9424 12.3252L23.8483 12.7627L21.7542 14.8254C21.5823 14.995 21.5034 15.2377 21.5428 15.476L22.0247 18.3755L19.416 17.021C19.309 16.9653 19.1916 16.9375 19.0742 16.9375C18.9568 16.9375 18.8394 16.9653 18.7321 17.021L16.1234 18.3755L16.6053 15.476C16.645 15.2377 16.5661 14.995 16.3939 14.8254L14.3001 12.7627L17.206 12.3252Z"
            fill="#020202" />
        <path
            d="M19.8164 0.742189C19.8164 1.15213 19.4842 1.48438 19.0742 1.48438C18.6643 1.48438 18.332 1.15213 18.332 0.742189C18.332 0.332245 18.6643 0 19.0742 0C19.4842 0 19.8164 0.332245 19.8164 0.742189Z"
            fill="#020202" />
        <path
            d="M15.5764 0.437581C9.33301 2.03126 4.97266 7.65015 4.97266 14.1017C4.97266 18.1086 6.65737 21.8842 9.61481 24.5581L5.14342 32.4384C4.99962 32.6921 5.01759 33.0063 5.18922 33.2417C5.36086 33.4774 5.65425 33.5908 5.93982 33.5314L11.0177 32.4769L12.8025 37.5061C12.8993 37.7798 13.1472 37.9715 13.4365 37.9973C13.7258 38.0231 14.0033 37.8772 14.1468 37.6247L19.0742 28.962L24.0014 37.6247C24.1342 37.8581 24.3812 37.9999 24.6462 37.9999C24.6679 37.9999 24.6899 37.999 24.7117 37.9973C25.001 37.9715 25.2489 37.7795 25.346 37.5061L27.1305 32.4769L32.2084 33.5314C32.4936 33.5905 32.7873 33.4772 32.959 33.2417C33.1309 33.0063 33.1486 32.6921 33.0048 32.4384L28.5334 24.5581C31.4908 21.8842 33.1755 18.1086 33.1755 14.1017C33.1755 7.65015 28.8152 2.03126 22.5721 0.437581C22.1746 0.33611 21.7708 0.575871 21.6693 0.973058C21.5678 1.37025 21.8076 1.77439 22.2048 1.87586C27.7903 3.30168 31.6914 8.32913 31.6914 14.1017C31.6914 21.1273 25.9856 26.7189 19.0742 26.7189C12.158 26.7189 6.45703 21.1226 6.45703 14.1017C6.45703 8.32913 10.3579 3.30168 15.9434 1.87586C16.3406 1.77439 16.5804 1.37025 16.4792 0.973058C16.3777 0.575871 15.9739 0.33611 15.5764 0.437581ZM13.6589 35.4808L12.2003 31.3706C12.0762 31.021 11.7132 30.8166 11.35 30.892L7.24387 31.7446L10.7826 25.5079C12.8459 27.0079 15.2891 27.9218 17.8296 28.1479L13.6589 35.4808ZM26.7982 30.892C26.4352 30.8166 26.072 31.021 25.9479 31.3706L24.4896 35.4808L20.3186 28.1479C22.8594 27.9218 25.3022 27.0079 27.3659 25.5079L30.9046 31.7446L26.7982 30.892Z"
            fill="#020202" />
    </g>
    <defs>
        <clipPath id="clip0_197_152">
            <rect width="38" height="38" fill="white" />
        </clipPath>
    </defs>
</svg>