<svg width="60" height="60" viewBox="0 0 60 60" fill="none" xmlns="http://www.w3.org/2000/svg">
    <g clip-path="url(#clip0_222_52)">
        <path
            d="M17.7621 24.4839C17.5441 24.2659 17.2418 24.1405 16.9336 24.1405C16.6254 24.1405 16.3232 24.2658 16.1051 24.4839C15.8871 24.7018 15.7617 25.0042 15.7617 25.3124C15.7617 25.6206 15.8871 25.9229 16.1051 26.1408C16.323 26.3587 16.6254 26.4842 16.9336 26.4842C17.2418 26.4842 17.5441 26.3589 17.7621 26.1408C17.9801 25.9229 18.1055 25.6206 18.1055 25.3124C18.1055 25.0042 17.9801 24.7018 17.7621 24.4839Z"
            fill="#79D5AE" />
        <path
            d="M56.4848 0H9.84434C7.90583 0 6.32873 1.5771 6.32873 3.51561V22.9687C6.32873 24.9072 7.90583 26.4843 9.84434 26.4843H11.9537C12.6009 26.4843 13.1256 25.9595 13.1256 25.3124C13.1256 24.6653 12.6009 24.1405 11.9537 24.1405H9.84434C9.19817 24.1405 8.67247 23.6148 8.67247 22.9687V3.51561C8.67247 2.86944 9.19817 2.34374 9.84434 2.34374H56.4848C57.1309 2.34374 57.6567 2.86944 57.6567 3.51561V22.9687C57.6567 23.6148 57.1309 24.1405 56.4848 24.1405H48.6465C48.3357 24.1405 48.0376 24.264 47.8179 24.4838L43.959 28.3426L40.1002 24.4838C39.8804 24.264 39.5823 24.1405 39.2715 24.1405H30.1327C30.0466 23.9193 29.9492 23.701 29.8389 23.4867C28.9998 21.8566 27.5716 20.6651 25.8175 20.1318L24.1232 19.6166C23.5267 19.435 22.8925 19.7528 22.6804 20.3391L20.0182 27.6972C19.2798 29.738 17.8234 31.4334 15.9174 32.4714L13.4183 33.8321C12.8041 33.0866 11.8743 32.6105 10.8352 32.6105H3.3469C1.50191 32.6105 0.00097659 34.1115 0.00097659 35.9565V56.6536C0.000742216 58.4987 1.50179 59.9998 3.34678 59.9998H10.835C12.0015 59.9998 13.0298 59.3994 13.6289 58.4918L14.8247 58.9608C16.5827 59.6504 18.4318 60 20.3205 60H36.1323C38.5048 60 40.4348 58.0699 40.4348 55.6975C40.4348 54.9122 40.2224 54.176 39.8534 53.5417C41.5987 52.9931 42.8685 51.3603 42.8685 49.4362C42.8685 48.631 42.6456 47.877 42.2591 47.2319C43.9302 46.6408 45.1309 45.0458 45.1309 43.1748C45.1309 41.2259 43.828 39.5765 42.0479 39.0494C42.4099 38.4194 42.618 37.6904 42.618 36.9132C42.618 34.5409 40.688 32.6107 38.3155 32.6107H28.9185L30.2327 28.7091C30.4783 27.9797 30.5945 27.2297 30.5866 26.4844H38.7861L43.1304 30.8286C43.3592 31.0574 43.6591 31.1719 43.959 31.1719C44.2589 31.1719 44.5589 31.0574 44.7876 30.8286L49.132 26.4843H56.4848C58.4233 26.4843 60.0004 24.9072 60.0004 22.9687V3.51561C60.0004 1.5771 58.4233 0 56.4848 0ZM11.8373 56.6537C11.8372 57.2064 11.3877 57.656 10.835 57.656H3.34678C2.79413 57.656 2.3446 57.2064 2.3446 56.6537V35.9566C2.3446 35.404 2.79413 34.9543 3.34678 34.9543H5.91904V49.3825C5.91904 50.0296 6.44369 50.5544 7.09091 50.5544C7.73813 50.5544 8.26278 50.0296 8.26278 49.3825V34.9543H10.835C11.2727 34.9543 11.6448 35.2369 11.7811 35.6287C11.7908 35.6854 11.8049 35.7417 11.8234 35.7974C11.8317 35.8494 11.8373 35.9022 11.8373 35.9566V56.6537ZM38.3156 34.9542V34.9543C39.3957 34.9543 40.2744 35.833 40.2744 36.9131C40.2744 37.9932 39.3957 38.872 38.3156 38.872H31.9581C31.3109 38.872 30.7862 39.3968 30.7862 40.0439C30.7862 40.691 31.3109 41.2157 31.9581 41.2157L40.8285 41.216C41.9086 41.216 42.7873 42.0946 42.7873 43.1748C42.7873 44.2549 41.9086 45.1337 40.8285 45.1337H31.9581C31.3109 45.1337 30.7862 45.6584 30.7862 46.3055C30.7862 46.9526 31.3109 47.4774 31.9581 47.4774H38.5661C39.6462 47.4774 40.5248 48.3561 40.5248 49.4362C40.5248 50.5163 39.6462 51.395 38.5661 51.395H31.9581C31.3109 51.395 30.7862 51.9197 30.7862 52.5668C30.7862 53.2139 31.3109 53.7387 31.9581 53.7387H36.1324C37.2125 53.7387 38.0912 54.6175 38.0912 55.6976C38.0912 56.7777 37.2125 57.6564 36.1324 57.6564H20.3205C18.7259 57.6564 17.1648 57.3611 15.6804 56.779L14.181 56.1909V36.0855L17.0381 34.5297C19.4476 33.2177 21.2885 31.0745 22.2219 28.4946L24.5057 22.1827L25.1357 22.3742C26.2783 22.7216 27.2085 23.4976 27.7551 24.5594C28.3016 25.6211 28.3927 26.8292 28.0115 27.9608L26.1767 33.4083C26.0562 33.7659 26.1154 34.1597 26.3355 34.466C26.5557 34.7724 26.9098 34.9542 27.2873 34.9542H38.3156Z"
            fill="#79D5AE" />
        <path
            d="M54.6332 11.3643C54.4112 10.6818 53.8321 10.1937 53.1217 10.0907L51.0489 9.79014L50.1213 7.91222C49.8035 7.26875 49.1605 6.86914 48.4429 6.86914C48.4429 6.86914 48.4425 6.86914 48.4424 6.86914C47.7246 6.86937 47.0815 7.26933 46.764 7.91304L45.8376 9.79155L43.7648 10.0933C43.0545 10.1968 42.4756 10.6851 42.254 11.3678C42.0324 12.0504 42.214 12.7858 42.7282 13.2868L44.2285 14.7483L43.8749 16.8128C43.7537 17.5204 44.0392 18.2218 44.6201 18.6436C44.9482 18.8819 45.3319 19.0028 45.7184 19.0028C46.016 19.0028 46.3153 18.931 46.5918 18.7855L48.4456 17.8103L50.2998 18.7845C50.9352 19.1182 51.6906 19.0635 52.2713 18.6414C52.8518 18.2193 53.1369 17.5177 53.0154 16.8102L52.6608 14.746L54.1604 13.2835C54.6738 12.7822 54.8551 12.0468 54.6332 11.3643ZM50.8465 13.2413C50.4053 13.6715 50.2043 14.2911 50.3086 14.8984L50.5433 16.2651L49.3153 15.6198C48.7697 15.3337 48.1185 15.3337 47.5735 15.6206L46.3462 16.2663L46.5802 14.8995C46.6842 14.2919 46.4828 13.6724 46.0414 13.2425L45.048 12.2747L46.4203 12.0749C47.0303 11.9862 47.5571 11.6033 47.8295 11.0506L48.443 9.8069L49.0571 11.0503C49.33 11.6028 49.857 11.9854 50.4668 12.0739L51.8392 12.2729L50.8465 13.2413Z"
            fill="#79D5AE" />
        <path
            d="M39.725 11.3643C39.5029 10.6818 38.9239 10.1939 38.2135 10.0907L36.1407 9.79014L35.2131 7.91222C34.8953 7.26875 34.2523 6.86914 33.5347 6.86914C33.5346 6.86914 33.5343 6.86914 33.5342 6.86914C32.8164 6.86937 32.1732 7.26933 31.8557 7.91316L30.9294 9.79155L28.8566 10.0933C28.1463 10.1968 27.5674 10.6851 27.3458 11.3678C27.1242 12.0504 27.3058 12.7858 27.82 13.2868L29.3203 14.7483L28.9667 16.8128C28.8455 17.5204 29.1311 18.2219 29.7119 18.6436C30.0399 18.8819 30.4237 19.0028 30.8101 19.0028C31.1077 19.0028 31.4069 18.931 31.6833 18.7855L33.5371 17.8103L35.3915 18.7845C36.027 19.1182 36.7822 19.0635 37.3629 18.6414C37.9435 18.2193 38.2286 17.5177 38.1071 16.8102L37.7525 14.746L39.2521 13.2835C39.7657 12.7822 39.947 12.0469 39.725 11.3643ZM35.9383 13.2413C35.4971 13.6715 35.2961 14.2911 35.4004 14.8984L35.6351 16.2651L34.4071 15.62C33.8614 15.3334 33.2102 15.3338 32.6651 15.6206L31.4378 16.2663L31.6719 14.8995C31.7759 14.2919 31.5745 13.6724 31.133 13.2425L30.1396 12.2747L31.5119 12.0749C32.1217 11.9862 32.6485 11.6034 32.9213 11.0505L33.5347 9.80679L34.1486 11.05C34.4214 11.6027 34.9485 11.9854 35.5585 12.0739L36.9309 12.2729L35.9383 13.2413Z"
            fill="#79D5AE" />
        <path
            d="M24.8178 11.3643C24.5958 10.6818 24.0166 10.1937 23.3063 10.0907L21.2335 9.79014L20.306 7.91222C19.9882 7.26875 19.3452 6.86914 18.6275 6.86914C18.6274 6.86914 18.6272 6.86914 18.6271 6.86914C17.9093 6.86937 17.2661 7.26933 16.9486 7.91316L16.0222 9.79155L13.9494 10.0933C13.239 10.1968 12.6603 10.6852 12.4385 11.368C12.2169 12.0506 12.3987 12.7859 12.9128 13.2868L14.413 14.7483L14.0595 16.8128C13.9383 17.5204 14.2239 18.2219 14.8047 18.6436C15.1327 18.8819 15.5165 19.0028 15.9028 19.0028C16.2005 19.0028 16.4997 18.931 16.7761 18.7855L18.6299 17.8103L20.4841 18.7845C21.1195 19.1182 21.8749 19.0635 22.4556 18.6414C23.0361 18.2193 23.3212 17.5177 23.1997 16.8102L22.8451 14.746L24.3447 13.2835C24.8586 12.7822 25.0398 12.0469 24.8178 11.3643ZM21.0312 13.2413C20.59 13.6715 20.389 14.2911 20.4933 14.8984L20.728 16.2651L19.5 15.62C18.9544 15.3334 18.3029 15.3338 17.758 15.6206L16.5307 16.2663L16.7649 14.8991C16.8687 14.2918 16.6672 13.6726 16.2259 13.2425L15.2325 12.2747L16.6048 12.0749C17.2146 11.9862 17.7414 11.6034 18.0142 11.0505L18.6275 9.80679L19.2415 11.05C19.5143 11.6027 20.0414 11.9854 20.6514 12.0739L22.0239 12.2729L21.0312 13.2413Z"
            fill="#79D5AE" />
        <path
            d="M7.08984 52.4247C6.44262 52.4247 5.91797 52.9494 5.91797 53.5966V53.6148C5.91797 54.2619 6.44262 54.7867 7.08984 54.7867C7.73706 54.7867 8.26171 54.2619 8.26171 53.6148V53.5966C8.26171 52.9494 7.73706 52.4247 7.08984 52.4247Z"
            fill="#79D5AE" />
    </g>
    <defs>
        <clipPath id="clip0_222_52">
            <rect width="60" height="60" fill="white" />
        </clipPath>
    </defs>
</svg>