<svg width="60" height="60" viewBox="0 0 60 60" fill="none" xmlns="http://www.w3.org/2000/svg">
    <g clip-path="url(#clip0_222_88)">
        <path
            d="M50.0207 35.6771C52.1664 34.1604 53.47 31.6769 53.47 29.0183V23.8256C53.47 23.6988 53.4492 23.577 53.4121 23.4628C52.991 19.2865 49.4577 16.0157 45.1752 16.0157C40.6413 16.0157 36.9489 19.6821 36.8985 24.2073C36.896 24.2381 36.8938 24.269 36.8938 24.3006V29.0183C36.8938 31.6796 38.2001 34.1653 40.3496 35.6817C38.2553 36.4071 36.3348 37.5962 34.7466 39.1677L34.0098 35.8522C33.7502 34.6836 32.7328 33.8674 31.5356 33.8674H8.86324C8.09039 33.8674 7.3698 34.2131 6.88617 34.816C6.40254 35.4189 6.22137 36.1973 6.38906 36.9518L9.9477 52.9656H1.17188C0.524648 52.9656 0 53.4903 0 54.1374V58.8249C0 59.472 0.524648 59.9968 1.17188 59.9968H58.8281C59.4754 59.9968 60 59.472 60 58.8249V54.1374V49.6832C60 43.2062 55.8225 37.6872 50.0207 35.6771ZM45.1752 18.3595C47.7273 18.3595 49.9079 19.9802 50.7448 22.2473C50.7408 22.2512 50.7364 22.2546 50.7326 22.2586C49.2779 23.7355 47.2548 24.5825 45.1819 24.5825H39.2374V24.3471C39.238 24.3315 39.2398 24.3163 39.2398 24.3007C39.2398 21.0247 41.9024 18.3595 45.1752 18.3595ZM39.2374 29.0183V26.9261H45.1819C47.3159 26.9261 49.4079 26.2338 51.1263 24.9935V29.0182C51.1263 31.1068 49.9972 33.0438 48.1787 34.0736C46.3327 35.1215 44.0384 35.1231 42.1911 34.0769C42.1889 34.0756 42.184 34.0729 42.1796 34.0705C40.3647 33.0406 39.2374 31.1052 39.2374 29.0183ZM45.1819 37.2088C52.0603 37.2088 57.6562 42.8048 57.6562 49.6831V52.9654H37.8127L35.3713 41.9792C37.7289 38.9841 41.3607 37.2088 45.1819 37.2088ZM9.66703 40.8986H22.0539C22.7011 40.8986 23.2257 40.3739 23.2257 39.7268C23.2257 39.0797 22.7011 38.5549 22.0539 38.5549H9.14625L8.67703 36.4433C8.66062 36.3693 8.6884 36.3151 8.71441 36.2825C8.74055 36.2499 8.78766 36.2111 8.86324 36.2111H31.5356C31.6257 36.2111 31.7023 36.2725 31.7218 36.3604L35.4118 52.9654H12.3485L9.66703 40.8986ZM57.6562 57.6529H2.34375V55.3092H11.4086H36.8727H57.6562V57.6529Z"
            fill="#79D5AE" />
        <path
            d="M26.7412 38.5551C26.433 38.5551 26.1307 38.6803 25.9127 38.8984C25.6947 39.1163 25.5693 39.4186 25.5693 39.7269C25.5693 40.0351 25.6947 40.3375 25.9127 40.5553C26.1307 40.7733 26.433 40.8988 26.7412 40.8988C27.0494 40.8988 27.3518 40.7734 27.5709 40.5553C27.7889 40.3375 27.9131 40.0351 27.9131 39.7269C27.9131 39.4186 27.7889 39.1163 27.5709 38.8984C27.3518 38.6803 27.0506 38.5551 26.7412 38.5551Z"
            fill="#79D5AE" />
        <path
            d="M14.9998 29.9967C19.0065 29.9967 22.7733 28.4365 25.6065 25.6033C30.0706 21.1392 31.2617 14.3051 28.5704 8.59744C28.2944 8.01198 27.596 7.76131 27.0106 8.03729C26.4251 8.31327 26.1744 9.01159 26.4505 9.59705C28.7212 14.4129 27.716 20.1793 23.9491 23.9461C21.5587 26.3365 18.3805 27.6531 14.9998 27.6531C11.6192 27.6531 8.44097 26.3366 6.05058 23.9461C1.11593 19.0114 1.11593 10.9822 6.05058 6.04756C9.79261 2.3053 15.5309 1.28682 20.3293 3.51327C20.9163 3.78549 21.6131 3.53049 21.8855 2.9435C22.1579 2.35639 21.9028 1.65959 21.3158 1.38725C15.6288 -1.25134 8.82804 -0.0446642 4.39319 4.39006C-1.45528 10.2385 -1.45528 19.7547 4.39319 25.6033C7.22644 28.4365 10.9932 29.9967 14.9998 29.9967Z"
            fill="#79D5AE" />
        <path
            d="M23.9717 16.1798H24.8228C25.47 16.1798 25.9947 15.655 25.9947 15.0079C25.9947 14.3608 25.47 13.8361 24.8228 13.8361H23.9717C23.3245 13.8361 22.7998 14.3608 22.7998 15.0079C22.7998 15.655 23.3245 16.1798 23.9717 16.1798Z"
            fill="#79D5AE" />
        <path
            d="M5.17676 13.8137C4.52953 13.8137 4.00488 14.3385 4.00488 14.9856C4.00488 15.6327 4.52953 16.1575 5.17676 16.1575H6.02789C6.67512 16.1575 7.19977 15.6327 7.19977 14.9856C7.19977 14.3385 6.67512 13.8137 6.02789 13.8137H5.17676Z"
            fill="#79D5AE" />
        <path
            d="M13.8164 23.9688V24.82C13.8164 25.4671 14.3411 25.9919 14.9883 25.9919C15.6355 25.9919 16.1602 25.4671 16.1602 24.82V23.9688C16.1602 23.3216 15.6355 22.7969 14.9883 22.7969C14.3411 22.7969 13.8164 23.3215 13.8164 23.9688Z"
            fill="#79D5AE" />
        <path
            d="M17.8124 18.8639C18.1207 18.8639 18.4284 18.7429 18.6586 18.5028C19.1064 18.0356 19.0907 17.2938 18.6233 16.8459L16.1725 14.4972L16.183 6.06488C16.1838 5.41765 15.6599 4.8923 15.0127 4.89148C15.0122 4.89148 15.0116 4.89148 15.0111 4.89148C14.3646 4.89148 13.8401 5.41519 13.8393 6.06183L13.8281 14.9953C13.8278 15.3152 13.9582 15.6215 14.1892 15.8428L17.0017 18.5381C17.2288 18.7557 17.5208 18.8639 17.8124 18.8639Z"
            fill="#79D5AE" />
        <path
            d="M24.7783 6.39038C25.0865 6.39038 25.3889 6.26511 25.6068 6.04702C25.8248 5.82894 25.9502 5.52671 25.9502 5.21851C25.9502 4.9103 25.8248 4.60796 25.6068 4.39011C25.3889 4.17214 25.0865 4.04663 24.7783 4.04663C24.4701 4.04663 24.1678 4.17202 23.9498 4.39011C23.7318 4.60796 23.6064 4.9103 23.6064 5.21851C23.6064 5.52671 23.7318 5.82905 23.9498 6.04702C24.1678 6.26499 24.4701 6.39038 24.7783 6.39038Z"
            fill="#79D5AE" />
    </g>
    <defs>
        <clipPath id="clip0_222_88">
            <rect width="60" height="60" fill="white" />
        </clipPath>
    </defs>
</svg>