<svg width="44" height="44" viewBox="0 0 44 44" fill="none" xmlns="http://www.w3.org/2000/svg">
<g clip-path="url(#clip0_86_101)">
<path fill-rule="evenodd" clip-rule="evenodd" d="M15.9663 0.981141C19.0566 4.07144 22.1715 7.92206 25.6051 10.5709C27.1503 11.7481 28.8917 12.3122 31.1971 11.1105C31.2216 11.135 31.2216 10.9388 31.1971 11.1105L26.0711 16.2364C24.4279 17.8797 21.7055 17.8797 20.0622 16.2364L10.7177 6.91648C6.96523 3.16397 12.7289 -2.25632 15.9663 0.981141ZM29.8972 0.6623C27.3465 0.6623 25.2863 2.7225 25.2863 5.27323C25.2863 7.82395 27.3465 9.88415 29.8972 9.88415C32.448 9.88415 34.5082 7.82395 34.5082 5.27323C34.5082 2.74703 32.448 0.6623 29.8972 0.6623Z" fill="url(#paint0_linear_86_101)"/>
<path fill-rule="evenodd" clip-rule="evenodd" d="M15.9669 0.981053C19.0572 4.07135 22.172 7.92197 25.6056 10.5708C27.1508 11.7481 28.8922 12.3122 31.1976 11.1104C31.2221 11.1349 31.2221 10.9387 31.1976 11.1104L31.0259 11.2821C28.8186 12.3612 26.3414 12.9498 23.7171 12.9498C17.8308 12.9498 12.6558 9.90859 9.66362 5.32219C8.48636 1.864 13.1709 -1.81493 15.9669 0.981053ZM29.8977 0.662213C27.347 0.662213 25.2868 2.72241 25.2868 5.27314C25.2868 7.82386 27.347 9.88406 29.8977 9.88406C32.4485 9.88406 34.5087 7.82386 34.5087 5.27314C34.5087 2.74694 32.4485 0.662213 29.8977 0.662213Z" fill="url(#paint1_linear_86_101)"/>
<path fill-rule="evenodd" clip-rule="evenodd" d="M28.033 43.019C24.9427 39.9287 21.8279 36.0781 18.3942 33.4292C16.8491 32.252 15.1077 31.6879 12.8022 32.8897C12.7777 32.8651 12.7777 33.0614 12.8022 32.8897L17.9282 27.7637C19.5715 26.1204 22.2939 26.1204 23.9371 27.7637L33.2816 37.1082C37.0341 40.8362 31.295 46.2564 28.033 43.019ZM14.1021 43.3378C16.6529 43.3378 18.7131 41.2776 18.7131 38.7269C18.7131 36.1762 16.6529 34.116 14.1021 34.116C11.5514 34.116 9.49121 36.1762 9.49121 38.7269C9.49121 41.2776 11.5514 43.3378 14.1021 43.3378Z" fill="url(#paint2_linear_86_101)"/>
<path fill-rule="evenodd" clip-rule="evenodd" d="M28.033 43.0188C24.9427 39.9285 21.8279 36.0779 18.3942 33.4291C16.8491 32.2518 15.1077 31.6877 12.8022 32.8895C12.7777 32.865 12.7777 33.0612 12.8022 32.8895L12.9739 32.7178C15.1813 31.6387 17.6584 31.05 20.2827 31.05C26.169 31.05 31.3441 34.0913 34.3363 38.6777C35.5135 42.1359 30.8535 45.8148 28.033 43.0188ZM14.1021 43.3377C16.6529 43.3377 18.7131 41.2775 18.7131 38.7267C18.7131 36.176 16.6529 34.1158 14.1021 34.1158C11.5514 34.1158 9.49121 36.176 9.49121 38.7267C9.49121 41.2775 11.5514 43.3377 14.1021 43.3377Z" fill="url(#paint3_linear_86_101)"/>
<path fill-rule="evenodd" clip-rule="evenodd" d="M43.019 15.9666C39.9287 19.0569 36.0781 22.1717 33.4292 25.6054C32.252 27.1505 31.6879 28.8919 32.8897 31.1974C32.8651 31.2219 33.0614 31.2219 32.8897 31.1974L27.7637 26.0714C26.1204 24.4281 26.1204 21.7057 27.7637 20.0625L37.1082 10.718C40.8362 6.96547 46.2564 12.7291 43.019 15.9666ZM43.3378 29.8975C43.3378 27.3467 41.2776 25.2865 38.7269 25.2865C36.1762 25.2865 34.116 27.3467 34.116 29.8975C34.116 32.4482 36.1762 34.5084 38.7269 34.5084C41.2776 34.5084 43.3378 32.4482 43.3378 29.8975Z" fill="url(#paint4_linear_86_101)"/>
<path fill-rule="evenodd" clip-rule="evenodd" d="M43.0186 15.9666C39.9283 19.0569 36.0777 22.1717 33.4288 25.6054C32.2516 27.1506 31.6875 28.8919 32.8893 31.1974C32.8647 31.2219 33.061 31.2219 32.8893 31.1974L32.7176 31.0257C31.6384 28.8183 31.0498 26.3412 31.0498 23.7169C31.0498 17.8306 34.0911 12.6556 38.6775 9.66338C42.1356 8.48612 45.8146 13.1706 43.0186 15.9666ZM43.3374 29.8975C43.3374 27.3468 41.2772 25.2866 38.7265 25.2866C36.1758 25.2866 34.1156 27.3468 34.1156 29.8975C34.1156 32.4482 36.1758 34.5084 38.7265 34.5084C41.2772 34.5084 43.3374 32.4482 43.3374 29.8975Z" fill="url(#paint5_linear_86_101)"/>
<path fill-rule="evenodd" clip-rule="evenodd" d="M0.98065 28.0335C4.07095 24.9677 7.92156 21.8529 10.5704 18.3947C11.7477 16.8496 12.3118 15.1082 11.11 12.8027C11.1345 12.7782 10.9383 12.7782 11.11 12.8027L16.2359 17.9287C17.8792 19.572 17.8792 22.2944 16.2359 23.9376L6.89146 33.2821C3.16348 37.0346 -2.25681 31.2955 0.98065 28.0335ZM0.661809 14.1026C0.661809 16.6533 2.72201 18.7136 5.27273 18.7136C7.82346 18.7136 9.88366 16.6533 9.88366 14.1026C9.88366 11.5519 7.82346 9.4917 5.27273 9.4917C2.74654 9.4917 0.661809 11.5519 0.661809 14.1026Z" fill="url(#paint6_linear_86_101)"/>
<path fill-rule="evenodd" clip-rule="evenodd" d="M0.980809 28.0335C4.07111 24.9677 7.92172 21.8529 10.5706 18.3947C11.7478 16.8496 12.3119 15.1082 11.1101 12.8027C11.1347 12.7782 10.9384 12.7782 11.1101 12.8027L11.2818 12.9744C12.361 15.1818 12.9496 17.6589 12.9496 20.2832C12.9496 26.1695 9.90835 31.3445 5.32195 34.3367C1.86375 35.514 -1.81518 30.854 0.980809 28.0335ZM0.661969 14.1026C0.661969 16.6533 2.72217 18.7136 5.27289 18.7136C7.82362 18.7136 9.88382 16.6533 9.88382 14.1026C9.88382 11.5519 7.82362 9.4917 5.27289 9.4917C2.7467 9.4917 0.661969 11.5519 0.661969 14.1026Z" fill="url(#paint7_linear_86_101)"/>
</g>
<defs>
<linearGradient id="paint0_linear_86_101" x1="20.688" y1="15.8478" x2="21.4983" y2="9.007" gradientUnits="userSpaceOnUse">
<stop stop-color="#ED1C24"/>
<stop offset="1" stop-color="#C6262F"/>
</linearGradient>
<linearGradient id="paint1_linear_86_101" x1="22.4935" y1="6.09121" x2="18.329" y2="-6.17135" gradientUnits="userSpaceOnUse">
<stop stop-color="#ED1C24"/>
<stop offset="1" stop-color="#C6262F"/>
</linearGradient>
<linearGradient id="paint2_linear_86_101" x1="23.3153" y1="28.1567" x2="22.505" y2="34.9975" gradientUnits="userSpaceOnUse">
<stop stop-color="#ED1C24"/>
<stop offset="1" stop-color="#C6262F"/>
</linearGradient>
<linearGradient id="paint3_linear_86_101" x1="21.5099" y1="37.9133" x2="25.6745" y2="50.1759" gradientUnits="userSpaceOnUse">
<stop stop-color="#ED1C24"/>
<stop offset="1" stop-color="#C6262F"/>
</linearGradient>
<linearGradient id="paint4_linear_86_101" x1="23.4061" y1="22.6234" x2="55.7057" y2="21.3565" gradientUnits="userSpaceOnUse">
<stop stop-color="#F5BA2A"/>
<stop offset="1" stop-color="#F58220"/>
</linearGradient>
<linearGradient id="paint5_linear_86_101" x1="37.6969" y1="22.428" x2="53.7244" y2="18.2706" gradientUnits="userSpaceOnUse">
<stop stop-color="#F5BA2A"/>
<stop offset="1" stop-color="#F58220"/>
</linearGradient>
<linearGradient id="paint6_linear_86_101" x1="20.3913" y1="20.0544" x2="-17.9286" y2="24.8147" gradientUnits="userSpaceOnUse">
<stop stop-color="#F5BA2A"/>
<stop offset="1" stop-color="#F58220"/>
</linearGradient>
<linearGradient id="paint7_linear_86_101" x1="7.11319" y1="20.9666" x2="-11.4763" y2="28.6771" gradientUnits="userSpaceOnUse">
<stop stop-color="#F5BA2A"/>
<stop offset="1" stop-color="#F58220"/>
</linearGradient>
<clipPath id="clip0_86_101">
<rect width="44" height="44" fill="white"/>
</clipPath>
</defs>
</svg>
